HIERARCHY
ROOT Hips
{
	OFFSET -3.958830 18.904000 13.208200
	CHANNELS 6 Xposition Yposition Zposition Zrotation Yrotation Xrotation 
	JOINT LHipJoint
	{
		OFFSET 0.000000 0.000000 0.000000
		CHANNELS 3 Zrotation Yrotation Xrotation
		JOINT LeftUpLeg
		{
			OFFSET 1.800000 -1.400000 0.085000
			CHANNELS 3 Zrotation Yrotation Xrotation
			JOINT LeftLeg
			{
				OFFSET 2.215000 -6.000000 0.000000
				CHANNELS 3 Zrotation Yrotation Xrotation
				JOINT LeftFoot
				{
					OFFSET 2.500000 -6.900000 0.000000
					CHANNELS 3 Zrotation Yrotation Xrotation
					JOINT LeftToeBase
					{
						OFFSET 0.200000 -0.500000 1.950000
						CHANNELS 3 Zrotation Yrotation Xrotation
						End Site
						{
							OFFSET 0.000000 0.000000 0.000000
						}
					}
				}
			}
		}
	}
	JOINT RHipJoint
	{
		OFFSET 0.000000 0.000000 0.000000
		CHANNELS 3 Zrotation Yrotation Xrotation
		JOINT RightUpLeg
		{
			OFFSET -1.800000 -1.400000 0.085000
			CHANNELS 3 Zrotation Yrotation Xrotation
			JOINT RightLeg
			{
				OFFSET -2.215000 -6.000000 0.000000
				CHANNELS 3 Zrotation Yrotation Xrotation
				JOINT RightFoot
				{
					OFFSET -2.500000 -6.900000 0.000000
					CHANNELS 3 Zrotation Yrotation Xrotation
					JOINT RightToeBase
					{
						OFFSET -0.200000 -0.500000 1.950000
						CHANNELS 3 Zrotation Yrotation Xrotation
						End Site
						{
							OFFSET 0.000000 0.000000 0.000000
						}
					}
				}
			}
		}
	}
	JOINT LowerBack
	{
		OFFSET 0.000000 0.000000 0.000000
		CHANNELS 3 Zrotation Yrotation Xrotation
		JOINT Spine
		{
			OFFSET -0.087000 1.940000 -0.288900
			CHANNELS 3 Zrotation Yrotation Xrotation
			JOINT Spine1
			{
				OFFSET 0.000000 1.950000 0.060000
				CHANNELS 3 Zrotation Yrotation Xrotation
				JOINT Neck
				{
					OFFSET 0.000000 0.000000 0.000000
					CHANNELS 3 Zrotation Yrotation Xrotation
					JOINT Neck1
					{
						OFFSET 0.000000 1.600000 0.340000
						CHANNELS 3 Zrotation Yrotation Xrotation
						JOINT Head
						{
							OFFSET 0.000000 1.667000 -0.240000
							CHANNELS 3 Zrotation Yrotation Xrotation
							End Site
							{
								OFFSET 0.000000 0.000000 0.000000
							}
						}
					}
				}
				JOINT LeftShoulder
				{
					OFFSET 0.000000 0.000000 0.000000
					CHANNELS 3 Zrotation Yrotation Xrotation
					JOINT LeftArm
					{
						OFFSET 2.700000 1.550000 -0.730000
						CHANNELS 3 Zrotation Yrotation Xrotation
						JOINT LeftForeArm
						{
							OFFSET 5.450000 0.000000 0.000000
							CHANNELS 3 Zrotation Yrotation Xrotation
							JOINT LeftHand
							{
								OFFSET 3.450000 0.000000 0.000000
								CHANNELS 3 Zrotation Yrotation Xrotation
								JOINT LeftHandIndex1
								{
									OFFSET 0.750000 0.000000 0.000000
									CHANNELS 3 Zrotation Yrotation Xrotation
									End Site
									{
										OFFSET 0.000000 0.000000 0.000000
									}
								}
							}
						}
					}
				}
				JOINT RightShoulder
				{
					OFFSET 0.000000 0.000000 0.000000
					CHANNELS 3 Zrotation Yrotation Xrotation
					JOINT RightArm
					{
						OFFSET -2.700000 1.550000 -0.730000
						CHANNELS 3 Zrotation Yrotation Xrotation
						JOINT RightForeArm
						{
							OFFSET -5.450000 0.000000 0.000000
							CHANNELS 3 Zrotation Yrotation Xrotation
							JOINT RightHand
							{
								OFFSET -3.450000 0.000000 0.000000
								CHANNELS 3 Zrotation Yrotation Xrotation
								JOINT RightHandIndex1
								{
									OFFSET -0.750000 0.000000 0.000000
									CHANNELS 3 Zrotation Yrotation Xrotation
									End Site
									{
										OFFSET 0.000000 0.000000 0.000000
									}
								}
							}
						}
					}
				}
			}
		}
	}
}
MOTION
Frames: 9
Frame Time: 0.016667
-2.582840 16.568980 -8.694710 16.328459 4.028321 -2.290977 -15.071479 13.810746 3.004764 19.256752 -0.703690 -10.274237 -4.908748 5.207666 5.285003 -0.001618 4.339145 2.991669 0.178630 0.132670 0.220910 18.322061 -10.284306 2.542545 -24.243633 -0.100935 -30.555802 -0.182052 -12.379356 51.696026 -0.763312 -8.066641 1.340567 0.115950 -0.075820 0.070990 -3.852808 -3.798535 -7.753691 27.916714 -16.483489 18.139092 -15.828068 -10.745647 3.711091 10.553202 -10.884424 -10.251448 -22.422432 7.533081 31.829023 -14.232460 5.843540 -5.224020 -26.840617 -7.500101 4.262116 -38.211331 3.513445 -0.969508 0.718981 3.109323 -0.065618 -3.873484 2.970863 0.051330 0.056060 0.015890 -0.021650 4.899646 14.665118 4.363698 -16.920999 2.121461 -8.348779 -99.107422 28.991001 -31.763085 2.366377 -1.827636 -0.001830 0.008770 -0.030680 -0.113580 
-2.563610 16.580880 -8.713390 15.281954 4.720259 -1.580360 -15.165223 13.964104 3.167539 17.962454 -0.824539 -10.353414 -3.950798 4.588833 2.473275 -0.012697 4.191274 3.075906 0.151770 0.094730 0.207310 18.216087 -10.127771 2.499555 -22.696175 0.281098 -30.643372 -0.405726 -11.915545 51.283722 -0.720152 -7.905987 1.408589 0.103380 -0.053880 0.073780 -3.590585 -4.384225 -7.812326 28.733203 -16.140175 18.455515 -13.313511 -10.482147 2.012152 10.787355 -11.175867 -10.465918 -22.706407 6.883927 30.385117 -14.993890 6.056270 -5.192110 -28.134553 -8.017921 4.224533 -39.658152 3.846734 -1.049781 0.984272 3.489218 -0.015540 -3.906809 2.967622 0.045950 0.076800 -0.005840 -0.028440 5.852806 16.248812 4.451472 -18.149254 2.824826 -9.249489 -104.198952 21.741471 -26.848479 2.394801 -1.941716 -0.019600 0.012440 -0.011210 -0.120180 
-2.537310 16.594880 -8.707510 14.238006 4.480711 -0.711917 -15.211195 14.071474 3.246472 16.628034 -0.867482 -10.267641 -3.124643 4.208296 0.849850 -0.000986 4.073115 3.148075 0.123360 0.060150 0.187850 18.157299 -10.040432 2.521031 -21.417682 0.804522 -30.766328 -0.036694 -11.522555 50.215492 -0.658293 -7.678228 1.497223 0.084230 -0.032860 0.079550 -3.446564 -4.686114 -7.848518 29.880637 -15.448984 18.360722 -11.670754 -9.783363 0.712054 11.017405 -11.203900 -10.690646 -22.456316 5.994025 29.642794 -15.581660 6.093120 -4.546770 -29.465391 -8.517403 4.180428 -40.805887 4.371204 -1.277055 2.390624 3.868599 0.126810 -3.940470 2.977209 0.026480 0.097480 -0.025220 -0.028350 6.776008 17.646310 4.733974 -18.229910 3.564634 -9.836423 -109.334537 15.767659 -22.025659 2.417346 -2.040692 -0.024490 0.004340 -0.001750 -0.115130 
-2.518070 16.607280 -8.715290 13.196098 4.343903 0.224881 -15.244635 14.197441 3.253799 15.303229 -0.912216 -10.971529 -2.049989 3.915969 0.405707 0.008259 3.867483 3.235563 0.103030 0.040030 0.164160 18.108581 -9.976292 2.586877 -20.193321 1.350443 -31.149353 0.249535 -11.085943 49.182002 -0.598209 -7.443908 1.588290 0.063040 -0.023280 0.084650 -3.332656 -4.946846 -7.867661 30.970681 -14.585977 18.540918 -9.855829 -8.724981 -0.632574 10.985057 -11.496756 -11.045133 -22.850245 4.492902 28.743393 -16.073410 5.350440 -3.772230 -29.955254 -8.982652 4.067480 -41.838275 4.138622 -1.379753 2.678888 4.166282 0.204224 -3.954055 3.005673 -0.005710 0.106260 -0.039640 -0.021600 7.484694 19.229911 5.229389 -18.253830 3.068463 -10.417702 -113.818615 9.801088 -15.672672 2.460395 -2.158476 -0.009830 -0.015100 -0.004220 -0.096290 
-2.500440 16.628550 -8.734030 12.076605 4.259520 0.826203 -15.298334 14.358634 3.302118 14.478267 -0.942384 -11.732452 -1.268481 3.736686 0.104129 0.013494 3.732404 3.285424 0.081400 0.010780 0.142590 18.035041 -9.856213 2.648033 -19.094434 1.854554 -31.222779 1.061065 -10.911737 48.010596 -0.548739 -7.207582 1.681540 0.035440 -0.024330 0.078920 -3.158896 -5.379417 -7.942964 31.408636 -13.876854 19.387904 -7.948426 -7.578315 -2.158408 11.016949 -11.493386 -11.452763 -23.051062 3.498158 29.161788 -15.831050 4.494410 -3.185470 -30.557173 -9.562593 3.986032 -42.838197 3.825611 -1.455070 3.357063 4.466068 0.291198 -3.950073 3.014379 -0.006320 0.094850 -0.044850 -0.023510 8.225833 20.687821 5.761781 -17.541865 2.500773 -10.973599 -117.750351 4.867349 -9.388306 2.495147 -2.248325 -0.004620 -0.023750 0.002560 -0.087710 
-2.497510 16.648400 -8.758390 11.104861 4.377247 1.890643 -15.342156 14.453935 3.307868 13.739881 -1.086457 -13.562335 -0.530005 3.563040 0.494814 -0.005935 3.528054 3.347824 0.057200 -0.022130 0.128850 17.979384 -9.726488 2.772718 -18.203829 2.447107 -31.781604 2.091173 -10.914713 47.009515 -0.511323 -7.043878 1.742980 0.005310 -0.024170 0.089730 -3.019937 -5.688380 -8.017589 31.492813 -12.962863 20.074753 -6.225895 -6.168865 -3.564047 10.982506 -11.508768 -11.925167 -22.911177 2.228153 28.351392 -16.325840 4.175930 -2.916560 -30.513150 -10.016397 3.969157 -43.580222 3.503327 -1.699163 3.995275 3.537289 0.262047 -3.951640 3.037325 -0.015180 0.097100 -0.049180 -0.028830 8.531493 22.011217 6.358526 -15.738600 1.559347 -11.890991 -122.188043 -1.121932 -0.845706 2.543539 -2.400620 0.004850 -0.045090 0.009720 -0.082730 
-2.505010 16.691000 -8.778320 10.166131 4.343382 3.002151 -15.389361 14.576002 3.340835 13.432540 -1.254278 -15.984590 -0.262841 3.537344 1.683158 -0.030134 3.347276 3.397020 0.017110 -0.073070 0.103540 17.906281 -9.622282 2.872346 -17.221258 3.008315 -31.985769 3.158172 -10.695595 45.154334 -0.436838 -6.713995 1.871280 -0.032220 -0.016480 0.082590 -2.851086 -6.013795 -8.122773 30.976692 -11.656853 21.076992 -4.317376 -4.204798 -5.129823 11.015238 -11.187145 -12.287028 -22.218020 0.792039 28.356188 -16.276780 3.467530 -2.220990 -29.880788 -9.985406 3.695331 -44.618268 2.887005 -2.032827 4.088566 2.049901 0.140362 -3.946445 3.031352 -0.016880 0.095550 -0.060530 -0.034530 8.178469 22.682412 6.977556 -13.844897 -0.518692 -12.877685 -124.669919 -7.255466 9.253482 2.631510 -2.522416 -0.001200 -0.051260 0.021600 -0.078330 
-2.507850 16.743250 -8.797110 9.428737 4.471195 3.400012 -15.410311 14.693276 3.346244 13.130817 -1.386527 -17.942189 -0.076515 3.598616 3.542760 -0.062766 3.207452 3.424265 0.000930 -0.102290 0.097900 17.851165 -9.637839 2.902041 -16.583952 3.257702 -31.316913 4.296338 -10.511826 43.065241 -0.372737 -6.379314 1.990344 -0.054120 -0.025080 0.078680 -2.752433 -6.155215 -8.177076 30.064459 -10.525678 21.937934 -2.704178 -2.716652 -5.648759 10.851695 -10.770142 -12.359864 -21.562847 -0.322681 29.171973 -16.031670 2.284560 -1.878130 -28.987714 -9.845433 3.443912 -45.361010 1.721498 -2.197200 4.077409 0.139947 -0.033481 -3.924524 3.024439 -0.006620 0.081570 -0.059690 -0.042130 7.826293 22.691841 7.354324 -11.890235 -2.444239 -13.604157 -125.568838 -8.947867 11.656005 2.667006 -2.572590 -0.001920 -0.055830 0.027880 -0.079060 
-2.503230 16.806390 -8.802950 9.110012 4.399300 3.685385 -15.419685 14.796610 3.354083 12.547496 -1.545146 -19.461666 -0.379836 3.766089 5.737960 -0.110848 3.133694 3.424593 0.016550 -0.093600 0.113840 17.811614 -9.720165 2.850709 -16.159526 3.282224 -30.243632 4.820539 -9.884222 40.331324 -0.290736 -5.892720 2.154027 -0.046590 -0.042520 0.078170 -2.689036 -6.204021 -8.146414 29.118416 -9.587499 22.668787 -1.296976 -1.649349 -5.892017 10.492256 -11.085957 -12.030139 -22.120385 -0.812097 28.922834 -16.183400 1.529820 -2.664360 -28.355131 -8.874065 2.923107 -45.989245 0.597396 -2.303408 4.036714 -2.177268 -0.244878 -3.899841 3.016261 0.011090 0.065310 -0.051340 -0.048380 8.089339 22.061122 7.289922 -11.503037 -4.380637 -13.682402 -125.156952 -6.340180 6.591551 2.634406 -2.543281 -0.001470 -0.052370 0.028470 -0.087500 
